{
  "accessors": [
    {
      "bufferView": 1,
      "componentType": 5126,
      "count": 65532,
      "max": [
        22.54764175415039,
        46.61064147949219,
        23.361642837524414
      ],
      "min": [
        -27.294641494750977,
        -51.8846435546875,
        -10.794642448425293
      ],
      "type": "VEC3"
    },
    {
      "bufferView": 1,
      "byteOffset": 786384,
      "componentType": 5126,
      "count": 65532,
      "max": [
        0.9879181981086731,
        0.987919270992279,
        0.9879180192947388
      ],
      "min": [
        -0.9879180788993835,
        -0.9879192113876343,
        -0.9879180192947388
      ],
      "type": "VEC3"
    },
    {
      "bufferView": 0,
      "componentType": 5125,
      "count": 390342,
      "type": "SCALAR"
    },
    {
      "bufferView": 1,
      "byteOffset": 1572768,
      "componentType": 5126,
      "count": 53528,
      "max": [
        24.27564239501953,
        46.87164306640625,
        23.796642303466797
      ],
      "min": [
        -27.355642318725586,
        -48.820640563964844,
        -11.230642318725586
      ],
      "type": "VEC3"
    },
    {
      "bufferView": 1,
      "byteOffset": 2215104,
      "componentType": 5126,
      "count": 53528,
      "max": [
        0.9879180788993835,
        0.987919270992279,
        0.9879180192947388
      ],
      "min": [
        -0.9879180788993835,
        -0.9879193305969238,
        -0.9879180192947388
      ],
      "type": "VEC3"
    },
    {
      "bufferView": 0,
      "byteOffset": 1561368,
      "componentType": 5125,
      "count": 318786,
      "type": "SCALAR"
    },
    {
      "bufferView": 1,
      "byteOffset": 2857440,
      "componentType": 5126,
      "count": 12030,
      "max": [
        23.993242263793945,
        46.507080078125,
        23.532501220703125
      ],
      "min": [
        -27.008325576782227,
        -51.466575622558594,
        -10.966485977172852
      ],
      "type": "VEC3"
    },
    {
      "bufferView": 1,
      "byteOffset": 3001800,
      "componentType": 5126,
      "count": 12030,
      "max": [
        0.9996486902236938,
        0.9993864893913269,
        1.0
      ],
      "min": [
        -0.9996271133422852,
        -0.9993864893913269,
        -1.0
      ],
      "type": "VEC3"
    },
    {
      "bufferView": 0,
      "byteOffset": 2836512,
      "componentType": 5125,
      "count": 36090,
      "type": "SCALAR"
    }
  ],
  "asset": {
    "extras": {
      "author": "akatasis (https://sketchfab.com/akatasis)",
      "license": "CC-BY-4.0 (http://creativecommons.org/licenses/by/4.0/)",
      "source": "https://sketchfab.com/3d-models/3d-laurel-wreath-2806b78b03594b909370364a26f0c767",
      "title": "3D Laurel wreath"
    },
    "generator": "Sketchfab-12.65.0",
    "version": "2.0"
  },
  "bufferViews": [
    {
      "buffer": 0,
      "byteLength": 2980872,
      "name": "floatBufferViews",
      "target": 34963
    },
    {
      "buffer": 0,
      "byteLength": 3146160,
      "byteOffset": 2980872,
      "byteStride": 12,
      "name": "floatBufferViews",
      "target": 34962
    }
  ],
  "buffers": [
    {
      "byteLength": 6127032,
      "uri": "scene.bin"
    }
  ],
  "materials": [
    {
      "doubleSided": true,
      "name": "material_0",
      "pbrMetallicRoughness": {
        "baseColorFactor": [0.075, 0.246, 0.533, 1.0],
        "metallicFactor": 0.0,
        "roughnessFactor": 0.6
      }
    },
    {
      "doubleSided": true,
      "name": "material_1",
      "pbrMetallicRoughness": {
        "baseColorFactor": [0.321, 0.698, 0.827, 1.0],
        "metallicFactor": 0.0,
        "roughnessFactor": 0.6
      }
    }
  ],
  "meshes": [
    {
      "name": "Object_0",
      "primitives": [
        {
          "attributes": {
            "NORMAL": 1,
            "POSITION": 0
          },
          "indices": 2,
          "material": 0,
          "mode": 4
        }
      ]
    },
    {
      "name": "Object_1",
      "primitives": [
        {
          "attributes": {
            "NORMAL": 4,
            "POSITION": 3
          },
          "indices": 5,
          "material": 0,
          "mode": 4
        }
      ]
    },
    {
      "name": "Object_2",
      "primitives": [
        {
          "attributes": {
            "NORMAL": 7,
            "POSITION": 6
          },
          "indices": 8,
          "material": 1,
          "mode": 4
        }
      ]
    }
  ],
  "nodes": [
    {
      "children": [
        1
      ],
      "matrix": [
        1.0,
        0.0,
        0.0,
        0.0,
        0.0,
        2.220446049250313e-16,
        -1.0,
        0.0,
        0.0,
        1.0,
        2.220446049250313e-16,
        0.0,
        0.0,
        0.0,
        0.0,
        1.0
      ],
      "name": "Sketchfab_model"
    },
    {
      "children": [
        2,
        3,
        4
      ],
      "name": "lauru_priuferis_n2.obj.cleaner.gles"
    },
    {
      "mesh": 0,
      "name": "Object_2"
    },
    {
      "mesh": 1,
      "name": "Object_3"
    },
    {
      "mesh": 2,
      "name": "Object_4"
    }
  ],
  "scene": 0,
  "scenes": [
    {
      "name": "Sketchfab_Scene",
      "nodes": [
        0
      ]
    }
  ]
}



